<?xml version="1.0" encoding="UTF-8"?>
<svg xmlns="http://www.w3.org/2000/svg" width="181.87" height="162.12" xmlns:xlink="http://www.w3.org/1999/xlink" viewBox="0 0 181.87 162.12">
  <defs>
    <style>
      .cls-1 {
        fill: url(#New_Gradient_Swatch_copy_11);
      }

      .cls-1, .cls-2 {
        mix-blend-mode: multiply;
      }

      .cls-3 {
        fill: #556e7a;
      }

      .cls-2 {
        fill: url(#New_Gradient_Swatch_copy_11-2);
      }

      .cls-4 {
        isolation: isolate;
      }

      .cls-5 {
        fill: #666;
      }

      .cls-6 {
        fill: url(#Degradado_sin_nombre_9);
      }

      .cls-7 {
        fill: #b3b3b3;
      }
    </style>
    <linearGradient id="New_Gradient_Swatch_copy_11" data-name="New Gradient Swatch copy 11" x1="80.44" y1="69.48" x2="97.6" y2="-40.56" gradientUnits="userSpaceOnUse">
      <stop offset="0" stop-color="#7b728c"/>
      <stop offset="1" stop-color="#e1d9ff" stop-opacity="0"/>
    </linearGradient>
    <linearGradient id="Degradado_sin_nombre_9" data-name="Degradado sin nombre 9" x1="76.25" y1="158.57" x2="105.57" y2="58.98" gradientUnits="userSpaceOnUse">
      <stop offset="0" stop-color="#4d4d4d"/>
      <stop offset="1" stop-color="#999"/>
    </linearGradient>
    <linearGradient id="New_Gradient_Swatch_copy_11-2" data-name="New Gradient Swatch copy 11" x1="112.24" y1="210.84" x2="95.67" y2="44.77" xlink:href="#New_Gradient_Swatch_copy_11"/>
  </defs>
  <g class="cls-4">
    <g id="Capa_2" data-name="Capa 2">
      <g id="Capa_1-2" data-name="Capa 1">
        <g>
          <path class="cls-7" d="M163.51,20.22l-25.33,25.1c-.84-1.69-1.84-3.26-3-4.71C111.42,10.63,22.96,30.79,0,101.8,7.39,50.19,44.08,19.49,69.37,8.93c32.39-13.54,71.49-12.71,92.58,9.55.54.54,1.06,1.13,1.56,1.73Z"/>
          <path class="cls-1" d="M163.51,20.22l-25.33,25.1c-.84-1.69-1.84-3.26-3-4.71C111.42,10.63,22.96,30.79,0,101.8,18.77,37.7,64.55,20.2,81.12,15.72c13.91-3.76,36.58-4.11,51.16,3.43,13.1,6.78,19.64,7.64,29.67-.66.54.54,1.06,1.13,1.56,1.73Z"/>
          <path class="cls-5" d="M74.84,56.93c-3.2,1.05-5.54-.52-5.25-3.47.28-2.92,3.04-6.13,6.18-7.2,3.16-1.08,5.56.41,5.33,3.34-.23,2.97-3.04,6.27-6.26,7.32ZM115.96,43.94c.03-2.29-2.06-3.44-4.65-2.57-2.58.86-4.71,3.39-4.78,5.67-.07,2.3,1.99,3.5,4.61,2.65,2.63-.85,4.8-3.44,4.83-5.75ZM130.29,72.82c-.02-1.74-1.59-2.69-3.5-2.12-1.9.56-3.43,2.42-3.42,4.16,0,1.75,1.55,2.72,3.47,2.16,1.93-.56,3.47-2.45,3.45-4.2ZM122.23,94.55c0-1.4-1.19-2.2-2.65-1.79-1.46.4-2.64,1.85-2.66,3.25-.01,1.4,1.16,2.22,2.63,1.82,1.47-.4,2.67-1.87,2.67-3.27ZM104.77,113.74c.03-.97-.74-1.56-1.71-1.3-.97.25-1.78,1.24-1.81,2.21-.03.97.73,1.57,1.7,1.31.98-.25,1.79-1.25,1.82-2.23ZM82.71,124.7c.03-.5-.33-.8-.8-.68-.47.12-.89.62-.92,1.12-.03.5.33.8.8.68.48-.12.89-.62.92-1.12Z"/>
          <polygon class="cls-3" points="181.87 2 163.51 20.22 138.18 45.32 81.07 101.96 60.08 77.17 80.99 85.41 135.19 40.6 161.95 18.48 181.87 2"/>
          <path class="cls-6" d="M107.4,155.27c-54.49,18.35-90.42-2.64-93.06-33.74-2.2-25.89,17.11-53.16,39.5-57.51-31.64,17.47-44.9,67.41-.5,75.71,36.07,6.75,86.34-29.37,89.35-69.68.07-1.03.13-2.05.13-3.08.71-20.21,30.6-45.13,33.52-47.8-3.05,5.9-2.14,13.96-.63,26.75v.08c7.39,36.34-11.45,90.15-68.31,109.29Z"/>
          <path class="cls-2" d="M176.34,19.15c-21.4,30.82-16.02,43.9-21.4,66.52-5.4,22.64-26.89,49.87-59.24,61.04-30.79,10.63-61.41,5.49-71.76-14.23-10.35-19.72-3.36-53.44,29.9-68.46-31.64,17.47-44.9,67.41-.5,75.71,36.07,6.75,86.34-29.37,89.35-69.68.07-1.03.13-2.05.13-3.08.71-20.21,30.6-45.13,33.52-47.8Z"/>
        </g>
      </g>
    </g>
  </g>
</svg>