<?xml version="1.0" encoding="UTF-8"?>
<svg id="Capa_1" data-name="Capa 1" xmlns="http://www.w3.org/2000/svg" viewBox="0 0 172.75 37.39">
  <defs>
    <style>
      .cls-1 {
        fill: #fff;
      }
    </style>
  </defs>
  <path class="cls-1" d="M30.49,29.81c0,3.95,1.36,5.45,5.31,5.45,1.09,0,2.04-.14,4.63-.82v-2.86c-1.09,.14-1.63,.14-2.31,.14-2.04,0-2.72-.68-2.72-2.72v-9.12h5.04v-3h-4.9v-5.58s-4.9-.27-4.9,2.45v3.13h-2.18v3h2.18l-.14,9.94h0Zm-6.53-15.11c2.18,0,2.86-.68,2.86-2.45s-.82-2.31-2.86-2.31-2.86,.54-2.86,2.31,.82,2.45,2.86,2.45m2.45,2.31h-4.9v18.11h4.9s0-18.24,0-18.11ZM8.3,35.39c1.09,0,2.45-.41,4.76-1.5v1.09h4.76V10.07s-4.9-.68-4.9,3.81v3.68c-1.36-.54-2.45-.82-3.54-.82-4.63,0-8.03,4.22-8.03,9.8s2.72,8.85,6.94,8.85m3-15.52c.54,0,1.23,.14,1.77,.14v11.3c-.82,.14-1.5,.14-2.18,.14-2.86,0-4.36-2.04-4.36-5.72s1.63-5.85,4.76-5.85m105.24-1.77c-.95-.82-2.59-1.36-4.63-1.36-1.63,0-3.68,.41-7.08,1.23v2.72c1.77-.41,3.95-.54,5.58-.54,2.18,0,3,.68,3,2.45v1.5c-1.63,0-3,0-4.49,.14-3.68,.41-5.58,2.18-5.58,5.72s2.04,5.45,5.31,5.45c1.36,0,2.31-.27,4.9-1.36v1.23h5.04v-12.12c0-2.72-.95-4.08-2.04-5.04m-3.13,13.61c-.68,.14-1.5,.27-2.18,.27-1.91,0-3-.82-3-2.59,0-1.5,.82-2.31,2.45-2.59,.68-.14,1.09-.14,2.72-.14v5.04h0Zm-26.28,3.4v-11.71c0-2.59-.27-3.81-1.23-4.9-.82-1.09-2.59-1.36-4.36-1.36h-10.21v18.11h4.9v-14.7c1.09-.27,2.04-.41,2.72-.41,2.31,0,3.13,.95,3.13,3.54v11.3l5.04,.14h0Zm-27.77-10.89c-3.68,.41-5.58,2.18-5.58,5.72s2.04,5.45,5.31,5.45c1.36,0,2.31-.27,4.9-1.36v1.23h4.49v-12.12c0-2.72-.41-4.08-1.5-5.04-.95-.82-2.59-1.36-4.63-1.36-1.63,0-3.68,.41-7.08,1.23v2.72c1.77-.41,3.95-.54,5.45-.54,2.18,0,3,.68,3,2.45v1.5c-1.5,0-2.86,0-4.36,.14m4.49,2.45v5.04c-.68,.14-1.5,.27-2.18,.27-1.91,0-3-.82-3-2.59,0-1.5,.82-2.31,2.45-2.59,.82,0,1.23,0,2.72-.14m-10.35-5.31v-4.22c-.54-.27-1.09-.41-1.91-.41s-2.45,.54-4.36,1.63v-1.36h-4.76v18.11h4.9v-14.29c.68-.14,1.77-.27,2.45-.27,1.36,0,2.59,.27,3.68,.82m44.93,3.27l-2.59-1.23c-1.5-.68-1.91-1.23-1.91-2.04,0-1.23,.82-1.63,2.59-1.63,1.23,0,3,.27,4.22,.54v-2.72c-2.45-.68-3.81-.95-5.17-.95-3.95,0-6.26,2.04-6.26,5.45,0,2.31,1.09,3.95,3.54,5.04l2.59,1.23c1.09,.54,1.5,1.09,1.5,1.91,0,1.36-.82,1.91-2.86,1.91-1.63,0-3.13-.14-4.9-.68v2.86c2.45,.68,3.95,.95,5.72,.95,4.22,0,6.81-2.18,6.81-5.72,0-2.31-.95-3.81-3.27-4.9"/>
  <path class="cls-1" d="M128.38,29.54c.14,.82,.27,1.09,.41,.95,.27,0,.14-.82,.14-1.36l-.27-5.99c0-.68-.27-.68-.41-.27-.27,.41-.41,1.77-.27,2.31l.41,4.36h0Z"/>
  <path class="cls-1" d="M130.42,28.72c.27,0,.27-.68,.27-1.23l.54-12.53c0-.54-.27-.54-.54,0l-.41,.68c-.27,.54-.54,1.36-.41,1.91l.27,10.21c0,.68,.27,.95,.27,.95"/>
  <path class="cls-1" d="M126.61,33.62c.27,0,.27-.54,.14-1.63l-1.09-9.67c-.14-.54-.27-.54-.54,0l-.41,.82c-.27,.68-.27,1.63-.14,2.31l1.5,7.35c.14,.68,.41,.95,.54,.82"/>
  <path class="cls-1" d="M137.63,27.22c.27,.14,.54-.68,.68-1.09,1.91-4.9,2.18-5.17,5.99-15.38,.14-.41,.68-1.5,.14-1.77-.54-.27-1.09,.41-1.23,.95l-5.45,15.93c0,.27-.27,1.36-.14,1.36"/>
  <path class="cls-1" d="M166.91,33.62l.41-.95c.27-.68-.41-1.23-1.23-1.09l-19.33,2.18c-.82,.14-1.91,.27-1.91,.54s.95,.27,1.77,.27h18.52c.82,.14,1.5-.41,1.77-.95"/>
  <path class="cls-1" d="M133.14,26.81c.27,0,.27-.68,.41-1.36l.82-9.53c.14-.54-.14-.68-.41-.14-.27,.41-.68,1.36-.68,1.91l-.41,8.17c.14,.54,.14,.95,.27,.95"/>
  <path class="cls-1" d="M146.35,32.26c.14,.27,.68,.14,1.5-.14l21.65-3.81c.82-.14,1.5-.68,1.63-1.36l.27-2.59c0-.54-.54-.82-1.23-.54l-22.33,7.49c-.82,.41-1.63,.68-1.5,.95"/>
  <path class="cls-1" d="M167.31,20.01l-.27-2.45c0-.54-.54-.68-1.09-.27l-21.51,12.93c-.68,.41-1.23,.68-1.23,.95,.14,.27,.82,0,1.5-.27l21.51-9.39c.54-.27,1.09-.95,1.09-1.5"/>
  <path class="cls-1" d="M144.31,28.17c.14,.14,.82-.14,1.36-.68l22.33-16.2c.54-.41,.82-1.09,.54-1.63l-.82-1.91c-.14-.41-.68-.41-1.09,0l-21.51,19.2c-.41,.54-.95,.95-.82,1.23"/>
  <path class="cls-1" d="M140.22,26.27c.14,.14,.54-.41,.95-.95l13.61-22.06c.27-.41,.41-.95-.14-1.23-.41-.14-1.09,.14-1.36,.68l-12.66,22.19c-.27,.68-.54,1.23-.41,1.36"/>
  <path class="cls-1" d="M140.77,28.31c.27,.14,.68-.27,1.09-.82l17.02-17.56c.41-.41,.68-.82,.41-1.36-.14-.41-.27-.68-.82-1.09-.41-.27-.95-.27-1.23,.27l-15.93,19.2c-.41,.68-.68,1.23-.54,1.36"/>
  <path class="cls-1" d="M136.14,25.72c.27,0,.54-.82,.82-1.77,.27-.95,3.54-16.61,3.54-16.61,.14-.41,.27-1.36-.27-1.5-.27,0-1.09,.68-1.23,1.36l-2.86,17.02c-.14,.82-.14,1.5,0,1.5"/>
</svg>